<?xml version="1.0" standalone="no"?>
<!DOCTYPE svg PUBLIC "-//W3C//DTD SVG 20010904//EN"
 "http://www.w3.org/TR/2001/REC-SVG-20010904/DTD/svg10.dtd">
<svg version="1.0" xmlns="http://www.w3.org/2000/svg"
 width="1280.000000pt" height="1280.000000pt" viewBox="0 0 1280.000000 1280.000000"
 preserveAspectRatio="xMidYMid meet">
<metadata>
Created by potrace 1.15, written by Peter Selinger 2001-2017
</metadata>
<g transform="translate(0.000000,1280.000000) scale(0.100000,-0.100000)"
fill="#000000" stroke="none">
<path d="M6156 10394 l-1939 -12 -144 -144 c-224 -222 -816 -829 -1154 -1183
-679 -711 -1476 -1576 -1492 -1616 -6 -19 29 -58 275 -297 352 -342 556 -547
1896 -1907 1716 -1741 2810 -2825 2851 -2825 12 0 80 65 182 173 493 520 1159
1213 2219 2307 1723 1777 2510 2609 2510 2652 0 15 -247 269 -802 827 -442
443 -927 937 -1078 1096 -580 612 -839 862 -954 920 -48 24 -56 25 -240 23
-105 0 -1064 -7 -2130 -14z m2330 -662 c435 -409 1897 -1935 1873 -1956 -2 -2
-524 -7 -1159 -10 l-1155 -7 -74 178 c-252 607 -578 1356 -756 1736 -48 103
-86 189 -84 192 2 2 200 8 439 15 239 6 444 12 455 14 11 2 79 4 151 5 l131 1
179 -168z m-1970 142 l51 -6 38 -92 c21 -50 164 -374 318 -721 262 -592 457
-1043 525 -1215 l30 -75 -32 -7 c-17 -4 -488 -8 -1046 -9 -558 -1 -1033 -2
-1055 -3 -22 0 -39 4 -38 9 5 30 726 1737 848 2009 l59 129 125 -7 c69 -3 149
-9 177 -12z m-905 -36 c-47 -120 -865 -2085 -870 -2091 -8 -8 -2330 -27 -2341
-19 -13 9 33 62 100 113 97 75 211 196 1234 1304 127 138 334 355 460 483
l229 232 598 0 599 0 -9 -22z m4789 -2596 c0 -10 -51 -57 -108 -101 -60 -46
-817 -831 -1626 -1686 -527 -557 -1217 -1264 -1523 -1562 -145 -140 -263 -253
-263 -250 0 8 855 2544 953 2827 112 324 265 751 271 758 3 2 484 8 1068 12
585 3 1100 7 1146 8 45 1 82 -2 82 -6z m-2896 -59 c-67 -224 -187 -592 -337
-1038 -282 -833 -622 -1854 -680 -2039 l-53 -170 -28 75 c-213 567 -1114 3116
-1129 3193 -1 8 219 12 853 16 470 3 975 6 1122 8 l266 2 -14 -47z m-2740
-110 c369 -1053 1183 -3354 1215 -3437 l11 -28 -32 27 c-210 175 -1125 1083
-1989 1975 -317 327 -797 814 -1068 1082 l-491 487 52 6 c131 15 509 22 1348
23 l905 2 49 -137z"/>
</g>
</svg>
