<svg width="256" height="256" xmlns="http://www.w3.org/2000/svg">
 <!-- Created with Method Draw - http://github.com/duopixel/Method-Draw/ -->
 <defs>
  <linearGradient x1="50%" y1="3.96111359%" x2="50%" y2="100%" id="svg_6">
   <stop stop-color="#FDFDFD" offset="0%"/>
   <stop stop-color="#CBCBCB" offset="100%"/>
  </linearGradient>
  <linearGradient x1="50%" y1="3.96111359%" x2="50%" y2="100%" id="svg_5">
   <stop stop-color="#B2E198" offset="0%"/>
   <stop stop-color="#04A171" offset="100%"/>
  </linearGradient>
 </defs>
 <g>
  <title>background</title>
  <rect x="-1" y="-1" width="258" height="258" id="canvas_background" fill="none"/>
  <g id="canvasGrid" display="none">
   <rect id="svg_1" width="100%" height="100%" x="0" y="0" stroke-width="0" fill="url(#gridpattern)"/>
  </g>
 </g>
 <g>
  <title>Layer 1</title>
  <g stroke="null" id="svg_14">
   <g stroke="null" id="svg_8">
    <circle stroke="null" fill="url(#svg_6)" cx="128.000003" cy="128.000003" r="126.857773" id="svg_9"/>
    <circle stroke="null" fill="url(#svg_5)" cx="127.858894" cy="128.141113" r="115.992302" id="svg_10"/>
    <g stroke="null" id="svg_11">
     <path stroke="null" d="m100.668424,110.236766c-1.364851,2.103656 -2.683648,4.216374 -3.956452,6.332173c-1.392194,-3.832256 -2.614491,-7.606399 -3.655602,-11.288252c3.70105,-0.530274 7.634884,-0.94882 11.781276,-1.238346c-1.407999,2.018421 -2.799344,4.083412 -4.169222,6.194426l0,0l0,0l-0.000001,-0.000001zm102.331158,7.416459c-4.099793,-3.935568 -9.960939,-7.541783 -17.420569,-10.718706c-14.808893,-6.306791 -34.64502,-10.392746 -55.854659,-11.505253c-2.557779,-0.134075 -5.054849,-0.22579 -7.469804,-0.274599c16.193214,-19.328381 31.832142,-29.612487 40.939912,-29.958483c1.928705,-0.073668 3.547778,0.307906 4.816373,1.132279c4.262632,2.770276 5.445145,11.362701 3.16369,22.984831c-0.450126,2.294141 1.044198,4.519186 3.338369,4.969585c2.294444,0.448734 4.518882,-1.044198 4.969614,-3.338642c3.922025,-19.979468 -1.564329,-28.274189 -6.857382,-31.71472c-2.762647,-1.795781 -6.045727,-2.634536 -9.752105,-2.49371c-14.009681,0.532273 -33.639459,15.470456 -51.550818,38.499857c-7.091347,0.244684 -13.927837,0.856832 -20.322922,1.811829c-0.701895,-3.259341 -1.244311,-6.41852 -1.611746,-9.446712c-1.606417,-13.239507 0.36377,-22.63741 5.26986,-25.139598c0.78825,-0.401861 1.649595,-0.633283 2.633416,-0.706951c4.383718,-0.329919 10.56912,2.615884 17.405339,8.293329c1.798022,1.493476 4.467227,1.246552 5.961309,-0.552317c1.493537,-1.798597 1.24628,-4.46753 -0.552287,-5.961036c-8.780425,-7.292005 -16.669016,-10.732263 -23.447946,-10.222851c-2.096056,0.157178 -4.062852,0.698201 -5.846188,1.607506c-4.557307,2.324087 -7.671582,6.774418 -9.25653,13.227366c-1.357463,5.525868 -1.549946,12.414559 -0.571787,20.474195c0.386661,3.187398 0.952211,6.504603 1.681205,9.920032c-5.000105,1.053796 -9.634139,2.337622 -13.787858,3.838183c-18.172696,6.564707 -22.368171,15.217574 -22.687643,21.320588c-0.305363,5.829808 2.678834,14.506073 18.628757,22.731395c2.07798,1.071873 4.631218,0.255403 5.702818,-1.822305c1.071601,-2.07798 0.255705,-4.631218 -1.822274,-5.702546c-9.175262,-4.731956 -14.297846,-10.112788 -14.054283,-14.763747c0.343181,-6.55314 11.327183,-13.488983 30.037239,-17.39717c1.733103,6.259374 3.959238,12.760322 6.628474,19.352097c-6.72473,12.623423 -11.631395,25.064506 -14.17561,36.1312c-1.818338,7.907787 -2.349763,14.773345 -1.579589,20.406159c0.899435,6.578847 3.530852,11.328304 7.820312,14.116626c2.187196,1.421564 5.134998,2.533496 9.007032,2.533496c5.614494,-0.000273 13.171198,-2.339045 23.160932,-9.464213c1.903301,-1.357494 2.3461,-4.001053 0.988333,-5.904627c-1.357191,-1.903271 -4.001023,-2.345796 -5.904596,-0.988303c-9.847211,7.023583 -18.30986,9.53761 -22.637683,6.725003c-4.615442,-3.000002 -5.588818,-12.542972 -2.6035,-25.527349c1.979513,-8.609682 5.511758,-18.152925 10.301879,-27.988569c1.039989,2.226437 2.125397,4.454268 3.257374,6.677859c9.640921,18.938086 21.443059,35.414922 33.23251,46.395806c5.937055,5.529532 11.61562,9.423034 16.87785,11.572412c3.192485,1.303597 6.19052,1.955532 8.973756,1.955532c2.576129,-0.000303 4.96907,-0.558827 7.15993,-1.676118c4.395587,-2.241667 7.452302,-6.469873 9.085485,-12.566953c1.398401,-5.221353 1.712514,-11.734706 0.934164,-19.359447c-1.53078,-14.991777 -7.195779,-33.276233 -15.951345,-51.485355c-1.01289,-2.10732 -3.542692,-2.993493 -5.649769,-1.980875c-2.107018,1.013162 -2.993766,3.542692 -1.980633,5.649739c8.341594,17.34805 13.725483,34.63515 15.158886,48.676442c1.260692,12.348793 -0.77411,21.142753 -5.443176,23.523855c-4.903,2.500188 -13.648151,-1.426923 -23.394594,-10.504778c-11.083075,-10.322771 -22.255018,-25.963668 -31.458197,-44.041258c-2.103929,-4.133099 -4.042233,-8.274677 -5.805827,-12.385218c2.188922,-3.91382 4.555884,-7.840902 7.087684,-11.742882c2.581458,-3.978443 5.194829,-7.727727 7.815225,-11.244771c0.695083,-0.009598 1.393858,-0.016654 2.098569,-0.018894c3.635587,-0.011597 7.532178,0.089747 11.596423,0.302819c20.244741,1.062002 39.06035,4.911752 52.980829,10.839792c12.244119,5.21457 19.382005,11.612502 19.094143,17.114661c-0.244684,4.671549 -5.920977,9.500336 -15.573192,13.247925c-2.179566,0.846386 -3.260461,3.299158 -2.414379,5.478481c0.650815,1.676089 2.251539,2.70224 3.947702,2.70224c0.50911,0 1.027545,-0.092562 1.530749,-0.288164c16.772328,-6.512203 20.657927,-14.849829 20.964138,-20.697986c0.267544,-5.110987 -2.024083,-10.032337 -6.811389,-14.628007l0,0l0,0l0.000001,-0.000002z" fill="#F2F8F6" id="svg_12"/>
     <path stroke="null" d="m119.262966,129.12387c0,5.112954 4.141275,9.257923 9.249748,9.257923c5.108746,0 9.250021,-4.144969 9.250021,-9.257923c0,-5.112985 -4.141275,-9.257954 -9.250021,-9.257954c-5.108474,0 -9.249748,4.144969 -9.249748,9.257954" fill="#F1F8F3" id="svg_13"/>
    </g>
   </g>
  </g>
 </g>
</svg>