<svg xmlns="http://www.w3.org/2000/svg" width="256" height="256" preserveAspectRatio="xMidYMid"><path fill="#563D7C" d="M19.5 208.52c0 15.455 12.527 27.98 27.98 27.98h161.04c15.455 0 27.98-12.527 27.98-27.98V47.48c0-15.455-12.527-27.98-27.98-27.98H47.48c-15.455 0-27.98 12.527-27.98 27.98v161.04z"/><path fill="#FFF" d="M109.485 115.487v-30.73h27.05c2.577 0 5.06.214 7.453.644 2.392.43 4.508 1.197 6.348 2.3 1.84 1.105 3.313 2.638 4.417 4.6 1.104 1.964 1.656 4.48 1.656 7.546 0 5.52-1.657 9.507-4.97 11.96-3.312 2.454-7.544 3.68-12.696 3.68h-29.26zm-28.89-53.18v131.386h63.67c5.887 0 11.623-.736 17.204-2.208 5.58-1.472 10.55-3.74 14.905-6.808 4.355-3.067 7.82-7.024 10.396-11.87 2.578-4.845 3.866-10.58 3.866-17.205 0-8.22-1.994-15.242-5.98-21.07-3.988-5.827-10.03-9.906-18.126-12.236 5.888-2.822 10.335-6.44 13.34-10.857 3.006-4.418 4.51-9.938 4.51-16.563 0-6.134-1.013-11.286-3.037-15.457-2.024-4.17-4.876-7.514-8.557-10.03-3.68-2.514-8.096-4.323-13.25-5.427-5.15-1.104-10.856-1.656-17.112-1.656h-61.83zm28.89 108.937v-36.067h31.467c6.256 0 11.286 1.44 15.09 4.324 3.802 2.884 5.703 7.7 5.703 14.446 0 3.435-.582 6.257-1.748 8.465-1.165 2.21-2.73 3.957-4.692 5.245-1.963 1.288-4.232 2.208-6.81 2.76-2.575.552-5.274.83-8.095.83h-30.915z"/></svg>