<svg width="256" height="256" xmlns="http://www.w3.org/2000/svg">
 <metadata id="metadata8">image/svg+xml</metadata>
 <defs>
  <clipPath clipPathUnits="userSpaceOnUse" id="clipPath42">
   <path d="m-24.315936,1380.964599l500,0l0,-500l-500,0l0,500z" id="path40"/>
  </clipPath>
 </defs>
 <g>
  <title>background</title>
  <rect fill="none" id="canvas_background" height="258" width="258" y="-1" x="-1"/>
 </g>
 <g>
  <title>Layer 1</title>
  <g id="g10" transform="matrix(0.5092551703039137,0,0,-0.5092551703039137,12.523005330770527,705.1200360016685) ">
   <g id="g12">
    <path fill="#100f0d" fill-rule="nonzero" d="m105.635267,1154.296599l0,-42.071l31.45,21.035l-31.45,21.036z" id="path14"/>
   </g>
   <g id="g16">
    <path fill="#100f0d" fill-rule="nonzero" d="m214.18646,1184.834197l0,58.628l-98.487,-65.653l43.994,-29.43l54.493,36.455z" id="path18"/>
   </g>
   <g id="g20">
    <path fill="#100f0d" fill-rule="nonzero" d="m337.814954,1177.809295l-98.488,65.653l0,-58.628l54.497,-36.455l43.991,29.43z" id="path22"/>
   </g>
   <g id="g24">
    <path fill="#100f0d" fill-rule="nonzero" d="m115.699171,1088.7126l98.487,-65.653l0,58.629l-54.492,36.446l-43.995,-29.422z" id="path26"/>
   </g>
   <g id="g28">
    <path fill="#100f0d" fill-rule="nonzero" d="m239.326673,1081.688201l0,-58.629l98.488,65.653l-43.991,29.422l-54.497,-36.446z" id="path30"/>
   </g>
   <g id="g32">
    <path fill="#100f0d" fill-rule="nonzero" d="m226.755369,1162.99829l-44.457,-29.737l44.457,-29.738l44.46,29.738l-44.46,29.737z" id="path34"/>
   </g>
   <g id="g36">
    <g id="g38" clip-path="url(#clipPath42)">
     <g id="g44">
      <path fill="#100f0d" fill-rule="nonzero" d="m373.01515,1088.697005c0,-0.554 -0.039,-1.1 -0.112,-1.646c-0.027,-0.177 -0.07,-0.362 -0.1,-0.539c-0.065,-0.354 -0.127,-0.708 -0.22,-1.054c-0.053,-0.208 -0.13,-0.407 -0.196,-0.608c-0.1,-0.307 -0.199,-0.616 -0.322,-0.924c-0.085,-0.207 -0.19,-0.407 -0.281,-0.607c-0.135,-0.285 -0.274,-0.561 -0.427,-0.839c-0.113,-0.192 -0.239,-0.385 -0.359,-0.577c-0.169,-0.262 -0.341,-0.516 -0.53,-0.762c-0.139,-0.192 -0.281,-0.369 -0.434,-0.546c-0.197,-0.23 -0.405,-0.461 -0.624,-0.676c-0.166,-0.17 -0.328,-0.339 -0.5,-0.493c-0.227,-0.208 -0.469,-0.408 -0.715,-0.6c-0.186,-0.147 -0.37,-0.293 -0.567,-0.431c-0.072,-0.047 -0.137,-0.108 -0.211,-0.154l-133.687,-89.128c-2.112,-1.408 -4.54,-2.115 -6.975,-2.115c-2.427,0 -4.859,0.707 -6.971,2.115l-133.691,89.128c-0.07,0.046 -0.135,0.107 -0.204,0.154c-0.197,0.138 -0.385,0.284 -0.57,0.431c-0.246,0.192 -0.485,0.392 -0.712,0.6c-0.173,0.154 -0.338,0.323 -0.504,0.493c-0.219,0.215 -0.422,0.446 -0.627,0.676c-0.146,0.177 -0.292,0.354 -0.43,0.546c-0.185,0.246 -0.362,0.5 -0.528,0.762c-0.127,0.192 -0.246,0.385 -0.361,0.577c-0.154,0.278 -0.292,0.554 -0.427,0.839c-0.096,0.2 -0.193,0.4 -0.281,0.607c-0.123,0.308 -0.227,0.617 -0.323,0.924c-0.069,0.201 -0.138,0.4 -0.196,0.608c-0.093,0.346 -0.154,0.7 -0.22,1.054c-0.03,0.177 -0.076,0.362 -0.1,0.539c-0.073,0.546 -0.115,1.092 -0.115,1.646l0,89.128c0,0.554 0.042,1.1 0.115,1.639c0.024,0.184 0.07,0.361 0.1,0.546c0.066,0.354 0.127,0.708 0.22,1.054c0.058,0.208 0.127,0.408 0.196,0.608c0.096,0.308 0.2,0.615 0.323,0.916c0.088,0.207 0.185,0.415 0.281,0.615c0.135,0.285 0.273,0.562 0.427,0.831c0.115,0.2 0.234,0.392 0.361,0.585c0.166,0.261 0.343,0.515 0.528,0.762c0.138,0.184 0.284,0.369 0.43,0.545c0.205,0.231 0.408,0.462 0.627,0.678c0.166,0.169 0.331,0.338 0.504,0.492c0.227,0.208 0.466,0.408 0.712,0.601c0.185,0.146 0.373,0.292 0.57,0.43c0.069,0.047 0.134,0.108 0.204,0.154l133.691,89.128c4.224,2.816 9.721,2.816 13.946,0l133.687,-89.128c0.074,-0.046 0.139,-0.107 0.211,-0.154c0.197,-0.138 0.381,-0.284 0.567,-0.43c0.246,-0.193 0.488,-0.393 0.715,-0.601c0.172,-0.154 0.334,-0.323 0.5,-0.492c0.219,-0.216 0.427,-0.447 0.624,-0.678c0.153,-0.176 0.295,-0.361 0.434,-0.545c0.189,-0.247 0.361,-0.501 0.53,-0.762c0.12,-0.193 0.246,-0.385 0.359,-0.585c0.153,-0.269 0.292,-0.546 0.427,-0.831c0.091,-0.2 0.196,-0.408 0.281,-0.615c0.123,-0.301 0.222,-0.608 0.322,-0.916c0.066,-0.2 0.143,-0.4 0.196,-0.608c0.093,-0.346 0.155,-0.7 0.22,-1.054c0.03,-0.185 0.073,-0.362 0.1,-0.546c0.073,-0.539 0.112,-1.085 0.112,-1.639l0,-89.128zm-146.26,281.113c-130.637,0 -236.546,-105.905 -236.546,-236.549c0,-130.645 105.909,-236.545 236.546,-236.545c130.645,0 236.549,105.9 236.549,236.545c0,130.644 -105.904,236.549 -236.549,236.549" id="path46"/>
     </g>
     <g id="g48">
      <path fill="#100f0d" fill-rule="nonzero" d="m347.87837,1112.225295l0,42.071l-31.445,-21.035l31.445,-21.036z" id="path50"/>
     </g>
    </g>
   </g>
  </g>
 </g>
</svg>