<svg xmlns="http://www.w3.org/2000/svg" width="256" height="256" preserveAspectRatio="xMidYMid"><g stroke="null"><path fill="#F7DF1E" d="M20.5 20.5h215v215h-215v-215z"/><path d="M77.03 200.17l16.455-9.958c3.174 5.628 6.06 10.39 12.987 10.39 6.64 0 10.825-2.597 10.825-12.7v-68.696h20.205v68.983c0 20.926-12.267 30.45-30.164 30.45-16.162 0-25.545-8.37-30.307-18.472M148.476 198.005l16.45-9.526c4.332 7.072 9.96 12.267 19.918 12.267 8.372 0 13.71-4.186 13.71-9.958 0-6.93-5.483-9.383-14.72-13.422l-5.05-2.167c-14.577-6.203-24.247-13.996-24.247-30.45 0-15.153 11.545-26.7 29.586-26.7 12.845 0 22.08 4.475 28.72 16.165l-15.732 10.102c-3.463-6.205-7.214-8.658-12.986-8.658-5.918 0-9.67 3.75-9.67 8.657 0 6.062 3.752 8.516 12.41 12.268l5.05 2.165c17.176 7.36 26.846 14.865 26.846 31.75 0 18.185-14.288 28.143-33.482 28.143-18.762 0-30.885-8.948-36.8-20.638"/></g></svg>