<svg xmlns="http://www.w3.org/2000/svg" width="256" height="256"><g fill="#0868ac"><path d="M131.066 207.629c-1.558-.352-3.07-.836-4.59-1.285-.386-.117-.765-.23-1.144-.348a129.554 129.554 0 0 1-4.418-1.437c-.2-.075-.406-.145-.61-.22-1.308-.46-2.605-.948-3.894-1.444-.363-.145-.73-.286-1.094-.43a132.301 132.301 0 0 1-4.207-1.746c-.285-.121-.558-.25-.84-.375a162.491 162.491 0 0 1-3.546-1.649c-.34-.164-.68-.324-1.028-.492-.922-.45-1.832-.93-2.742-1.398-.61-.32-1.23-.625-1.832-.957A99.99 99.99 0 0 1 97.832 194c-.371-.207-.742-.406-1.113-.617a165.306 165.306 0 0 1-4.285-2.625c-.387-.25-.77-.516-1.153-.77a114.688 114.688 0 0 1-3.05-2.027c-.333-.227-.653-.469-.981-.691-.973-.684-1.93-1.38-2.883-2.083-.433-.32-.855-.644-1.277-.968a137.76 137.76 0 0 1-2.602-2.031c-.386-.31-.773-.618-1.156-.93-1.094-.899-2.176-1.801-3.238-2.727-.114-.097-.235-.195-.356-.3a159.898 159.898 0 0 1-3.406-3.094c-.324-.313-.64-.614-.957-.926a94.34 94.34 0 0 1-2.445-2.399c-.325-.32-.645-.632-.961-.957a134.71 134.71 0 0 1-3-3.171c-.051-.055-.102-.102-.149-.16a116.219 116.219 0 0 1-3.043-3.465c-.27-.32-.53-.63-.8-.946a147.471 147.471 0 0 1-2.192-2.71c-.27-.325-.535-.665-.8-1a145.848 145.848 0 0 1-2.532-3.372C32.625 124.898 24.422 81.95 42.668 46.68L26.496 67.19C5.773 96.977 8.352 135.727 24.18 167.375c.379.758.773 1.504 1.16 2.25.25.473.48.957.742 1.426.145.277.309.55.461.82.27.504.543.984.824 1.477.492.867.996 1.726 1.512 2.59.285.472.566.949.863 1.421.57.922 1.153 1.832 1.754 2.743.246.39.488.777.746 1.152.824 1.23 1.668 2.46 2.54 3.668.019.031.046.066.073.098.137.19.29.378.426.574.754 1.039 1.532 2.062 2.317 3.078.289.367.578.742.87 1.11.7.882 1.415 1.757 2.141 2.628a122.919 122.919 0 0 0 3.797 4.379l.059.066c.043.047.078.075.117.125a154.92 154.92 0 0 0 3.027 3.192c.32.328.645.656.973.98.793.801 1.602 1.586 2.418 2.371.332.317.66.637.988.938a120.959 120.959 0 0 0 3.317 3.02c.02.015.03.03.05.039.192.171.391.332.579.496a156.38 156.38 0 0 0 3.007 2.539c.414.336.832.664 1.25.996.829.664 1.664 1.32 2.508 1.96.446.344.89.684 1.344 1.024.93.684 1.867 1.36 2.816 2.02.344.25.68.492 1.024.726.097.07.183.137.281.203.898.618 1.82 1.211 2.734 1.809.395.262.79.531 1.184.789 1.41.89 2.84 1.77 4.285 2.621.39.227.785.445 1.18.668a135.51 135.51 0 0 0 3.215 1.8c.586.317 1.187.614 1.777.919.766.398 1.527.805 2.3 1.195.177.086.36.172.536.254.309.152.625.297.938.457a162.846 162.846 0 0 0 4.417 2.031 131.36 131.36 0 0 0 4.25 1.77c.344.137.692.27 1.036.406 1.324.508 2.664 1.012 4.011 1.484.172.063.336.118.504.176 1.477.516 2.973.996 4.473 1.465.36.102.719.219 1.082.32 1.527.461 3.039 1.016 4.617 1.305 82 14.953 116.39-34.879 126.184-53.488-.438-.477-.89-.957-1.328-1.434-25.032 27.45-65.77 34.41-104.493 25.598zm0 0"/><path d="M202.953 145.23c-11.742 2.313-24.617 2.036-37.84-1.398a90.87 90.87 0 0 1-4.379-1.266c-.445-.132-.879-.28-1.32-.425a94.596 94.596 0 0 1-3.066-1.055c-.461-.172-.926-.34-1.383-.516-1.11-.425-2.207-.87-3.297-1.332-.297-.125-.598-.242-.887-.375a92.797 92.797 0 0 1-4.039-1.875c-.68-.336-1.351-.687-2.023-1.031-.39-.203-.781-.402-1.168-.602a96.145 96.145 0 0 1-2.563-1.445c-.199-.113-.41-.226-.613-.347a90.075 90.075 0 0 1-3.102-1.895c-.316-.2-.617-.418-.933-.625-.676-.434-1.348-.879-2.012-1.324a112.465 112.465 0 0 1-4.18-3.063c-.316-.25-.632-.492-.941-.742-14.566-11.496-26.11-27.215-31.602-45.035-4.566-14.676-4.707-30.774.41-45.211-.535-.488-1.074-.969-1.613-1.453l-5.582 7.887c-14.988 21.562-14.175 50.433-2.484 73.242a95.232 95.232 0 0 0 6.629 11.062c2.246 3.219 4.734 7.047 7.715 9.633a88.263 88.263 0 0 0 3.36 3.492c.292.297.589.582.886.875a95.056 95.056 0 0 0 3.437 3.188c.047.039.09.09.137.125.012.011.027.015.035.031a103.35 103.35 0 0 0 4.012 3.32c.3.23.601.473.91.711a99.404 99.404 0 0 0 4.195 3.063c.047.031.078.062.121.094.633.437 1.278.843 1.915 1.261.308.2.601.414.91.598a78.774 78.774 0 0 0 3.109 1.906c.148.094.297.172.441.258.907.52 1.829 1.035 2.75 1.535.32.18.649.34.977.512.637.332 1.273.672 1.922.992.098.047.2.09.293.133a93.84 93.84 0 0 0 4.012 1.87c.289.13.59.243.886.364 1.086.461 2.188.914 3.285 1.336.473.176.942.348 1.41.516 1.005.37 2.008.71 3.02 1.05.461.149.906.297 1.367.438 1.442.45 2.868 1.012 4.368 1.262 28.062 4.652 48.269-.242 62.664-8.344-.61-.707-1.247-1.426-1.852-2.129-2.762-3.082-5.527-6.176-8.293-9.266zm0 0"/><path d="M245.68 118.215c-9.707 13.976-24.91 23.504-42.727 27.015 2.766 3.09 5.535 6.184 8.3 9.266.602.703 1.243 1.422 1.849 2.129 25.289-14.234 32.574-38.41 32.574-38.41zm-69.164-18.488c.64.238 1.277.449 1.922.668.28.085.562.183.847.265.91.285 1.813.621 2.758.797 42.723 8.254 54.309-21.922 57.394-26.367-10.152 14.617-27.207 18.125-48.14 13.047-1.652-.407-3.469-1.004-5.067-1.567a63.05 63.05 0 0 1-6.011-2.496 62.652 62.652 0 0 1-10.547-6.433c-18.727-14.215-30.36-41.325-18.14-63.403l-6.614 9.114c-8.836 13.003-9.703 29.148-3.574 43.507 6.465 15.243 19.71 27.2 35.172 32.868zm0 0"/></g></svg>