<svg xmlns="http://www.w3.org/2000/svg" xmlns:xlink="http://www.w3.org/1999/xlink" viewBox="0 0 189.11 58.75"><defs><style>.cls-1{fill:none;}.cls-2{clip-path:url(#clip-path);}.cls-3{fill:#3eb5f1;}.cls-4{fill:#d24a43;}.cls-5{fill:#7bb967;fill-rule:evenodd;}</style><clipPath id="clip-path" transform="translate(0 0)"><rect class="cls-1" width="192.29" height="60"/></clipPath></defs><title>logo-dark</title><g id="Layer_2" data-name="Layer 2"><g id="Layer_1-2" data-name="Layer 1"><g class="cls-2"><path class="cls-3" d="M30,5.73c-13.69.19-24.85,11-25.09,24.46a24.39,24.39,0,0,0,1,7.19L0,40.53,12.59,44l1.8-6.15,1.8-6.14L11,34.56a20.22,20.22,0,0,1-.41-4.28,19.49,19.49,0,0,1,18.5-18.91L26.63,8.88,30,5.73" transform="translate(0 0)"/><path class="cls-4" d="M12.89,44.57,8.46,43.33a24.86,24.86,0,0,0,6.15,6.82,29.41,29.41,0,0,0,2.79-1.33,28.42,28.42,0,0,0,2.75-1.7,19.68,19.68,0,0,1-6.28-5.89l-1,3.35" transform="translate(0 0)"/><path class="cls-4" d="M36.55,6.49,36.66,0,32,4.44l-4.7,4.45,9.11,9.18.09-5.8a19.93,19.93,0,0,1,7.74,4.63,40.11,40.11,0,0,1,4.19-3.81,25.37,25.37,0,0,0-11.83-6.6" transform="translate(0 0)"/><path class="cls-5" d="M55.82,9.87c-7.3,15.84-1.39,23.68-6.4,36.16-4.5,11.24-19.74,14-32.05,12.24,5.34-3.45,10-6.84,12.79-11.07,1.9-1.94,3.73-3.8,9-2.87-3.34-.87-5.56-.59-7.26.13,1.21-2.06,2.3-4.13,3.34-6.19C36.86,36.59,38.49,35,43,35.79c-3.17-.83-5.18-.48-6.74.29,1.37-2.81,2.7-5.59,4.14-8.3,1.51-1.49,3.23-2.73,7.35-2a9.49,9.49,0,0,0-6.3.09,44.69,44.69,0,0,1,14.33-16" transform="translate(0 0)"/><path class="cls-5" d="M58.36,8.15C36,16.77,34.72,40.14,17.55,49.46a29.65,29.65,0,0,1-6.64,2.63c-6.39,1.7-2.19,7.74,3.83,4.35,1.36-.78,2.65-1.56,3.84-2.39C39.2,40,36.43,19,58.36,8.15" transform="translate(0 0)"/><path class="cls-3" d="M85.21,30.19a12.92,12.92,0,0,1-3.29,8.88,11.05,11.05,0,0,1-8.64,4,10.3,10.3,0,0,1-7.69-3.17l0,12.86-7.16,0-.11-34.83,6.82,0v2.91a9.51,9.51,0,0,1,7.86-3.69A11.34,11.34,0,0,1,82,21a13.53,13.53,0,0,1,3.2,9.19m-19.79-.13a7,7,0,0,0,1.79,4.87,6.1,6.1,0,0,0,4.76,2,6,6,0,0,0,4.61-2,7.12,7.12,0,0,0,0-9.58,6.12,6.12,0,0,0-4.71-2,6.38,6.38,0,0,0-6.47,6.73" transform="translate(0 0)"/><path class="cls-3" d="M87.41,17.84l6.77,0v2.77c1-1.74,3-3.3,4.84-3.3a7.85,7.85,0,0,1,3.08.5l0,6.24a10.07,10.07,0,0,0-3-.46,3.92,3.92,0,0,0-3.68,2.5,10.79,10.79,0,0,0-.84,4.6l0,11.54-7.16,0-.08-24.4" transform="translate(0 0)"/><path class="cls-3" d="M129.27,42.11l-7.1,0V39.37a9.26,9.26,0,0,1-7.44,3.5,11.59,11.59,0,0,1-9-3.83A12.91,12.91,0,0,1,102.32,30a13.16,13.16,0,0,1,3.38-9.16,11.69,11.69,0,0,1,9-3.78q5,0,7.36,3.22V17.73l7.16,0,.08,24.4m-7-12.08a6.85,6.85,0,0,0-1.89-4.88,6.31,6.31,0,0,0-4.86-2,5.86,5.86,0,0,0-4.6,2,7.12,7.12,0,0,0,.13,9.53,6.06,6.06,0,0,0,4.62,2.05,6.26,6.26,0,0,0,4.65-2,6.55,6.55,0,0,0,2-4.74" transform="translate(0 0)"/><path class="cls-3" d="M155.48,42l-7.15,0,0-13.94c0-3.33-1.37-5-4-5-2.93,0-4.36,1.93-4.34,5.74l0,13.18-7.21,0-.08-24.4,6.88,0v2.72A7.36,7.36,0,0,1,146.17,17c6,0,9.24,3.45,9.25,9.32L155.48,42" transform="translate(0 0)"/><path class="cls-3" d="M184.58,41.94l-7.12,0V39.2A9.21,9.21,0,0,1,170,42.7a11.56,11.56,0,0,1-9-3.83,12.89,12.89,0,0,1-3.39-9.09A13.18,13.18,0,0,1,161,20.62a11.68,11.68,0,0,1,9-3.78q5,0,7.36,3.22V17.57l7.16,0,.08,24.4m-7-12.08A6.84,6.84,0,0,0,175.69,25a6.3,6.3,0,0,0-4.87-2,5.86,5.86,0,0,0-4.6,2,7.11,7.11,0,0,0,.13,9.53,6,6,0,0,0,4.61,2,6.26,6.26,0,0,0,4.66-2,6.59,6.59,0,0,0,1.95-4.74" transform="translate(0 0)"/><path class="cls-3" d="M186.82,12.23a2.22,2.22,0,0,0-2.32,2.33,2.15,2.15,0,0,0,2.28,2.25,2.2,2.2,0,0,0,2.33-2.34,2.14,2.14,0,0,0-2.28-2.24m0,4.1a1.65,1.65,0,0,1-1.62-1.79,1.63,1.63,0,1,1,3.23-.05,1.65,1.65,0,0,1-1.61,1.84" transform="translate(0 0)"/><path class="cls-3" d="M187.08,14.59h0a.69.69,0,0,0,.49-.66.64.64,0,0,0-.21-.49,1.08,1.08,0,0,0-.76-.2,4.16,4.16,0,0,0-.65.05v2.54h.35V14.7h.32c.31,0,.45.14.53.5a3,3,0,0,0,.18.61h.35a4.27,4.27,0,0,1-.21-.7.64.64,0,0,0-.38-.52m-.44-.14h-.34v-.94l.34,0c.36,0,.6.14.61.47s-.23.49-.59.49" transform="translate(0 0)"/></g></g></g></svg>