<svg width="256" height="256" xmlns="http://www.w3.org/2000/svg" preserveAspectRatio="xMidYMid">
 <defs>
  <linearGradient id="linearGradient-1" y2="24.6296296%" x2="75.5801105%" y1="144.124579%" x1="1.35359116%">
   <stop offset="2%" stop-color="#765AF8"/>
   <stop offset="38%" stop-color="#B345F1"/>
   <stop offset="76%" stop-color="#FA3293"/>
   <stop offset="94%" stop-color="#FF318C"/>
  </linearGradient>
  <linearGradient id="linearGradient-2" y2="6.72193878%" x2="25.4109589%" y1="98.5204082%" x1="60.0228311%">
   <stop offset="18%" stop-color="#765AF8"/>
   <stop offset="24%" stop-color="#8655F6"/>
   <stop offset="34%" stop-color="#9F4CF3"/>
   <stop offset="44%" stop-color="#AE47F2"/>
   <stop offset="52%" stop-color="#B345F1"/>
  </linearGradient>
  <linearGradient id="linearGradient-3" y2="35.4983389%" x2="17.9405941%" y1="80.7973422%" x1="87.7722772%">
   <stop offset="2%" stop-color="#765AF8"/>
   <stop offset="38%" stop-color="#B345F1"/>
  </linearGradient>
 </defs>
 <g>
  <title>background</title>
  <rect fill="none" id="canvas_background" height="402" width="582" y="-1" x="-1"/>
 </g>
 <g>
  <title>Layer 1</title>
  <g stroke="null" id="svg_1">
   <path stroke="null" id="svg_2" fill="url(#linearGradient-1)" d="m8,54.125l40.874999,-46.124999l83.624998,18l11.25,34.124999l-8.25,59.249999l-33.245915,-17.014087l1.745916,47.389087l0,41.249999l-73.124999,0.75l-22.875,-137.624997z"/>
   <polygon stroke="null" id="svg_3" points="83.75000762939453,148.62499618530273 88.24999237060547,91.99999618530273 156.125,22.25 216.875,33.5 248,111.12499618530273 215.37498474121094,143.37498092651367 162.5,134.74999618530273 129.125,169.24999618530273 " fill="url(#linearGradient-2)"/>
   <polygon stroke="null" id="svg_4" points="156.125,22.25 58.625,108.87499618530273 77.375,219.87499618530273 158.37498474121094,247.99999618530273 248,194.37499618530273 " fill="url(#linearGradient-3)"/>
   <rect stroke="null" id="svg_5" height="149.999997" width="149.999997" y="53" x="52.999999" fill="#000000"/>
   <path stroke="null" id="svg_6" fill="#FFFFFF" d="m67.249999,174.874998l56.249999,0l0,9.375l-56.249999,0l0,-9.375zm-0.75,-102.374998l25.5,0c15,0 24,8.625 24,21.375c0,14.25 -11.25,21.75 -25.125,21.75l-10.5,0l0,18.75l-13.875,0l0,-61.874999l0,0zm24.75,31.874999c6.54375,0 10.875,-4.5 10.875,-9.75c0,-6 -4.125,-9.375 -11.25,-9.375l-10.5,0l0,19.125l10.875,0zm28.124999,21.375l8.25,-9.75c5.625,4.5 11.625,7.5 18.75,7.5c5.625,0 9,-2.25 9,-6c0,-3.375 -2.25,-5.25 -12.75,-7.875c-12.75,-3.375 -20.625,-6.75 -20.625,-19.125l0,-0.375c0,-11.25 9,-18.75 21.75,-18.75c8.4105,-0.036047 16.592568,2.735306 23.25,7.875l-7.125,10.5c-5.625,-3.75 -10.875,-6 -16.125,-6c-5.25,0 -7.875,2.25 -7.875,5.625c0,4.125 2.625,5.625 13.5,8.25c12.75,3.375 19.875,7.875 19.875,18.75c0,12.375 -9.375,19.5 -22.875,19.5c-9.951994,0.134522 -19.590375,-3.479869 -26.999999,-10.125z"/>
  </g>
 </g>
</svg>