<svg xmlns="http://www.w3.org/2000/svg" width="256" height="256" preserveAspectRatio="xMidYMid"><path fill="#CD6799" d="M220.182 142.332c-8.907.047-16.647 2.192-23.13 5.362-2.377-4.71-4.755-8.906-5.175-11.983-.466-3.59-1.026-5.782-.466-10.072.56-4.29 3.078-10.398 3.032-10.864-.047-.467-.56-2.658-5.69-2.705-5.128-.048-9.558.978-10.07 2.33-.514 1.353-1.493 4.43-2.146 7.6-.886 4.664-10.26 21.31-15.62 30.03-1.727-3.403-3.22-6.387-3.545-8.765-.466-3.59-1.025-5.783-.466-10.072.56-4.29 3.078-10.4 3.03-10.865-.045-.467-.558-2.658-5.688-2.705-5.13-.047-9.56.98-10.072 2.332-.513 1.352-1.072 4.523-2.145 7.6-1.073 3.078-13.523 30.87-16.788 38.05-1.678 3.684-3.124 6.622-4.15 8.627 0 0-.046.14-.186.373-.886 1.726-1.4 2.658-1.4 2.658v.047c-.7 1.26-1.445 2.425-1.818 2.425-.28 0-.792-3.358.094-7.928 1.865-9.652 6.295-24.667 6.248-25.18 0-.28.84-2.89-2.89-4.243-3.638-1.353-4.944.886-5.27.886-.327 0-.56.792-.56.792s4.057-16.88-7.74-16.88c-7.368 0-17.533 8.067-22.57 15.342-3.17 1.725-9.932 5.41-17.16 9.372-2.75 1.54-5.595 3.078-8.253 4.523-.186-.187-.373-.42-.56-.607-14.268-15.248-40.66-26.02-39.542-46.49.42-7.46 2.984-27.046 50.687-50.827 39.263-19.352 70.505-13.99 75.914-2.098 7.74 16.973-16.74 48.495-57.308 53.065-15.482 1.725-23.595-4.244-25.647-6.482-2.144-2.33-2.47-2.47-3.263-2.004-1.306.7-.466 2.798 0 4.01 1.212 3.17 6.202 8.767 14.642 11.518 7.46 2.425 25.6 3.777 47.562-4.71 24.574-9.512 43.785-35.952 38.143-58.1-5.642-22.477-42.946-29.89-78.245-17.347-20.984 7.46-43.74 19.21-60.107 34.506C2.418 91.04-.66 106.846.6 113.468c4.523 23.502 36.93 38.796 49.894 50.127-.653.373-1.26.7-1.772.98-6.48 3.217-31.195 16.134-37.35 29.796-6.995 15.483 1.12 26.58 6.48 28.073C34.5 227.06 51.613 218.76 60.8 205.05c9.186-13.71 8.067-31.522 3.823-39.683-.046-.093-.093-.186-.186-.28 1.678-.98 3.404-2.005 5.082-2.984 3.31-1.958 6.574-3.777 9.372-5.27-1.585 4.338-2.75 9.514-3.31 16.974-.7 8.767 2.89 20.145 7.6 24.62 2.098 1.96 4.57 2.006 6.155 2.006 5.503 0 7.974-4.57 10.725-9.98 3.358-6.62 6.388-14.314 6.388-14.314s-3.777 20.796 6.482 20.796c3.73 0 7.508-4.85 9.186-7.32v.046s.094-.14.28-.467c.373-.606.606-.98.606-.98v-.092c1.492-2.61 4.85-8.533 9.84-18.372 6.434-12.683 12.636-28.537 12.636-28.537s.56 3.87 2.47 10.305c1.12 3.777 3.452 7.927 5.317 11.938-1.492 2.098-2.425 3.264-2.425 3.264l.047.046c-1.213 1.586-2.52 3.31-3.964 4.99-5.083 6.062-11.145 13.01-11.984 15.015-.98 2.38-.747 4.104 1.12 5.503 1.35 1.026 3.776 1.166 6.247 1.026 4.57-.328 7.786-1.447 9.372-2.146 2.47-.886 5.362-2.238 8.067-4.243 4.988-3.683 8.02-8.952 7.74-15.9-.14-3.824-1.4-7.648-2.938-11.238.466-.653.886-1.306 1.352-1.96 7.88-11.516 13.99-24.153 13.99-24.153s.56 3.87 2.47 10.304c.933 3.264 2.845 6.808 4.524 10.26-7.415 6.014-11.984 13.01-13.616 17.578-2.938 8.487-.653 12.31 3.683 13.197 1.96.418 4.757-.514 6.808-1.4 2.612-.84 5.69-2.285 8.627-4.43 4.99-3.684 9.792-8.813 9.513-15.76-.14-3.172-.98-6.296-2.145-9.327 6.295-2.61 14.408-4.057 24.76-2.845 22.196 2.612 26.58 16.46 25.74 22.29-.84 5.828-5.502 9-7.04 9.98-1.54.978-2.053 1.304-1.913 2.004.187 1.025.933.98 2.238.792 1.82-.326 11.658-4.71 12.078-15.434.7-13.71-12.356-28.678-35.438-28.538zM48.955 200.06c-7.367 8.02-17.626 11.052-22.056 8.487-4.757-2.75-2.892-14.595 6.154-23.082 5.503-5.176 12.59-9.98 17.3-12.917 1.073-.652 2.658-1.585 4.57-2.75.326-.187.513-.28.513-.28l1.12-.7c3.31 12.124.14 22.802-7.602 31.242zm53.625-36.465c-2.564 6.25-7.927 22.243-11.19 21.357-2.8-.746-4.524-12.87-.56-24.854 2.004-6.015 6.248-13.196 8.72-15.994 4.01-4.477 8.44-5.97 9.512-4.15 1.352 2.378-4.896 19.724-6.482 23.64zm44.252 21.17c-1.072.56-2.098.933-2.564.653-.327-.186.466-.932.466-.932s5.55-5.97 7.74-8.673c1.26-1.586 2.752-3.45 4.337-5.55v.607c0 7.134-6.9 11.937-9.978 13.896zm34.134-7.787c-.793-.56-.653-2.424 2.005-8.253 1.027-2.285 3.45-6.11 7.6-9.793.468 1.493.794 2.938.748 4.29-.047 9-6.482 12.357-10.352 13.756z"/></svg>