<?xml version="1.0" encoding="utf-8"?>
<!-- Generated by IcoMoon.io -->
<!DOCTYPE svg PUBLIC "-//W3C//DTD SVG 1.1//EN" "http://www.w3.org/Graphics/SVG/1.1/DTD/svg11.dtd">
<svg version="1.1" xmlns="http://www.w3.org/2000/svg" xmlns:xlink="http://www.w3.org/1999/xlink" width="512" height="512" viewBox="0 0 512 512">
<g>
</g>
	<path d="M127.488 269.773l-48.599-197.95-60.969-0.348 3.175 9.329 83.753 306.995 11.838 43.52h27.023l10.926-44.094 36.035-145.593-21.136-91.156-4.792-16.702-35.85 138.046z" fill="#000000" />
	<path d="M210.442 161.607l-44.636-11.049 24.863 91.075z" fill="#000000" />
	<path d="M253.563 265.636l-50.002-193.813-59.976-0.799 2.59 7.434 19.641 72.090 24.863 91.075 39.239 143.872 12.472 45.824h25.241l11.961-46.162 66.806-257.3 65.024-0.543-74.219 132.065 39.946 3.318c1.894 0.185 49.971 5.253 61.584 45.496 8.817 30.464 2.775 57.385-16.077 72.11-14.428 11.223-33.382 12.36-49.5 2.98-13.538-7.895-15.637-16.691-19.19-31.293-0.553-2.263-1.106-4.608-1.741-6.994l-49.756 13.138c0.543 1.874 0.993 3.861 1.505 6 4.311 17.776 10.793 44.667 43.213 63.56 34.181 19.906 76.196 17.244 107.090-6.82 35.502-27.678 48.538-76.329 33.925-126.935-12.298-42.66-44.319-63.386-70.134-73.4 0 0-19.292-7.475 0 0l63.385-112.804-1.874-35.901-173.302 0.656-51.353 195.205z" fill="#000000" />
</svg>
