<svg width="256" height="256" xmlns="http://www.w3.org/2000/svg">
 <!-- Created with Method Draw - http://github.com/duopixel/Method-Draw/ -->

 <g>
  <title>background</title>
  <rect fill="none" id="canvas_background" height="258" width="258" y="-1" x="-1"/>
  <g display="none" overflow="visible" y="0" x="0" height="100%" width="100%" id="canvasGrid">
   <rect fill="url(#gridpattern)" stroke-width="0" y="0" x="0" height="100%" width="100%"/>
  </g>
 </g>
 <g>
  <title>Layer 1</title>
  <!-- Created with Method Draw - http://github.com/duopixel/Method-Draw/ -->
  <!-- Created with Method Draw - http://github.com/duopixel/Method-Draw/ -->
  <!-- Created with Method Draw - http://github.com/duopixel/Method-Draw/ -->
  <g id="svg_97">
   <g transform="matrix(0.99257, 0, 0, 0.99257, -8.47481, -10.7847)" id="svg_96">
    <title>Layer 1</title>
    <g id="svg_81" stroke="null">
     <g fill="none" fill-rule="evenodd" id="svg_82" transform="matrix(4.07161, 0, 0, 4.07161, 1.55349, 42.896)" stroke="null">
      <path fill="#FDBD39" d="m12.38856,32.893188l-3.138809,1.146637l-0.16853,9.337738l10.86551,-3.969299c-3.726738,-1.251862 -6.448239,-3.454376 -7.558171,-6.515076" id="svg_90" stroke="null"/>
      <path fill="#F69833" d="m14.031192,23.016937l-10.89064,3.978516l6.109199,7.044373l3.138809,-1.146637c-1.106678,-3.051788 -0.424198,-6.501526 1.642632,-9.876251" id="svg_89" stroke="null"/>
      <path fill="#FECF33" d="m32.358189,9.543121c-13.868187,5.066193 -22.808927,15.520386 -19.969625,23.350067l50.221242,-18.346466c-2.83931,-7.829682 -16.383392,-10.069855 -30.251617,-5.003601" id="svg_88" stroke="null"/>
      <path fill="#EE6723" d="m42.640141,37.89679c13.868225,-5.066254 22.825764,-15.47406 19.96965,-23.350067l-50.221234,18.346466c2.856071,7.876038 16.383389,10.069824 30.251584,5.003601" id="svg_87" stroke="null"/>
      <path fill="#F69833" d="m62.609806,14.546722l-50.221246,18.346466c0.983402,2.711823 4.73351,4.047852 9.995332,4.047852c5.12986,0 11.696541,-1.26889 18.54258,-3.769897c13.868256,-5.066193 23.625462,-13.268738 21.683334,-18.62442" id="svg_86" stroke="null"/>
      <path fill="#FDBD39" d="m52.614475,10.49881c-5.129913,0 -11.696548,1.268951 -18.542648,3.769897c-13.868198,5.066254 -23.625428,13.268768 -21.683267,18.624481l50.221246,-18.346466c-0.983398,-2.711884 -4.733521,-4.047913 -9.995331,-4.047913" id="svg_85" stroke="null"/>
      <path fill="#EE6723" d="m49.840916,43.872009l-0.000351,0c-1.4776,0 -3.657486,-1.334686 -6.479218,-3.966919c-3.338272,-3.114197 -7.162247,-7.675476 -10.76767,-12.843536c-3.605301,-5.167847 -6.56781,-10.334503 -8.341797,-14.548248c-1.932816,-4.59195 -2.208397,-7.415375 -0.819122,-8.391938c0.304642,-0.213867 0.671837,-0.32225 1.091339,-0.32225c1.130081,0 3.332001,0.841385 7.403761,4.849839l0.089037,0.087616l-0.012039,0.124573c-0.027849,0.287964 -0.053499,0.578522 -0.076372,0.863708l-0.045395,0.566254l-0.399458,-0.402466c-4.387161,-4.419861 -6.318375,-4.897034 -6.945137,-4.897034c-0.178734,0 -0.321068,0.036346 -0.423103,0.108093c-0.602615,0.423431 -0.641396,2.497284 1.232468,6.9487c1.74234,4.138641 4.661758,9.227142 8.22049,14.328064c3.558884,5.10144 7.324341,9.595306 10.602921,12.653809c3.535461,3.298004 5.128616,3.654114 5.649536,3.654114c0.179855,0 0.326004,-0.038635 0.434402,-0.114868c0.635712,-0.446655 0.636459,-2.668335 -1.453247,-7.459534l-0.095932,-0.21994l0.210007,-0.11496c0.210037,-0.11499 0.413162,-0.22821 0.603638,-0.336487l0.251587,-0.142975l0.115967,0.265717c1.48172,3.394928 2.86676,7.709808 1.050598,8.986481c-0.306213,0.215118 -0.675217,0.324188 -1.096909,0.324188zm-0.000351,-0.523682l0.000381,0l-0.000259,0.26181l-0.000122,-0.26181z" id="svg_84" stroke="null"/>
      <path fill="#EE6723" d="m42.97681,37.753662l-0.021118,0.260925c-0.350601,4.338318 -1.273758,9.553986 -3.68074,9.765076c-0.048416,0.004303 -0.098648,0.006561 -0.14888,0.006561c-1.635132,0 -3.182114,-2.342804 -4.59787,-6.963409c-1.339508,-4.371368 -2.378952,-10.240601 -2.926865,-16.52652c-0.547943,-6.284607 -0.539719,-12.245819 0.023117,-16.785401c0.61348,-4.946777 1.781433,-7.530121 3.471207,-7.678406c0.049942,-0.004623 0.10173,-0.006989 0.152863,-0.006989c1.186203,0 2.973923,1.34314 4.804062,7.599304l-1.194992,0.230652c-0.611038,-2.090637 -1.276978,-3.791016 -1.938065,-4.959412c-0.611542,-1.080719 -1.206146,-1.675903 -1.674393,-1.675903c-0.015381,0 -0.030884,0.000641 -0.046173,0.001953c-0.732407,0.064331 -1.799072,1.840973 -2.393738,6.636292c-0.552811,4.458161 -0.559479,10.330048 -0.018784,16.533967c0.541031,6.204865 1.563492,11.986389 2.878983,16.279449c0.589127,1.922729 1.235321,3.507324 1.868713,4.582611c0.584076,0.991547 1.149323,1.537659 1.591583,1.537659c0.015213,0 0.030365,-0.000732 0.045471,-0.001984c0.70079,-0.061432 2.021469,-1.910248 2.577301,-8.414917l1.228317,-0.421509" id="svg_83" stroke="null"/>
     </g>
    </g>
   </g>
  </g>
 </g>
</svg>